<svg xmlns="http://www.w3.org/2000/svg" xmlns:xlink="http://www.w3.org/1999/xlink" width="118" height="21" zoomAndPan="magnify" viewBox="0 0 884.88 157.5"  preserveAspectRatio="xMidYMid meet" version="1.0"><defs><g/></defs><g fill="#000000" fill-opacity="1"><g transform="translate(9.353939, 107.907412)"><g><path d="M 4.015625 -41.5 C 4.015625 -50.207031 5.734375 -57.789062 9.171875 -64.25 C 12.609375 -70.707031 17.671875 -75.710938 24.359375 -79.265625 C 31.046875 -82.828125 39.242188 -84.609375 48.953125 -84.609375 C 58.734375 -84.609375 66.96875 -82.828125 73.65625 -79.265625 C 80.34375 -75.710938 85.40625 -70.707031 88.84375 -64.25 C 92.28125 -57.789062 94 -50.207031 94 -41.5 C 94.082031 -32.789062 92.382812 -25.222656 88.90625 -18.796875 C 85.425781 -12.378906 80.34375 -7.394531 73.65625 -3.84375 C 66.96875 -0.289062 58.734375 1.484375 48.953125 1.484375 C 48.648438 1.484375 48.363281 1.484375 48.09375 1.484375 C 47.820312 1.484375 47.535156 1.484375 47.234375 1.484375 C 50.140625 3.015625 53.253906 4.523438 56.578125 6.015625 C 59.898438 7.503906 62.742188 8.328125 65.109375 8.484375 C 70.304688 9.015625 74.738281 8.6875 78.40625 7.5 C 82.082031 6.320312 84.875 5.160156 86.78125 4.015625 C 87.164062 3.859375 87.488281 3.738281 87.75 3.65625 C 88.019531 3.582031 88.3125 3.546875 88.625 3.546875 C 89.6875 3.546875 90.488281 4.125 91.03125 5.28125 L 95.5 15.46875 C 95.875 16.394531 95.925781 17.316406 95.65625 18.234375 C 95.394531 19.148438 94.84375 19.910156 94 20.515625 C 91.707031 21.972656 88.6875 23.40625 84.9375 24.8125 C 81.195312 26.226562 76.726562 26.671875 71.53125 26.140625 C 67.5625 25.753906 64.140625 24.757812 61.265625 23.15625 C 58.398438 21.550781 55.859375 19.675781 53.640625 17.53125 C 51.429688 15.394531 49.296875 13.296875 47.234375 11.234375 C 45.171875 9.171875 43.03125 7.429688 40.8125 6.015625 C 38.59375 4.597656 36.03125 3.851562 33.125 3.78125 C 31.832031 3.707031 30.628906 3.859375 29.515625 4.234375 C 28.410156 4.617188 27.4375 5.117188 26.59375 5.734375 C 25.832031 6.191406 25.109375 6.421875 24.421875 6.421875 C 23.273438 6.421875 22.359375 5.921875 21.671875 4.921875 C 21.128906 4.085938 20.914062 3.191406 21.03125 2.234375 C 21.144531 1.273438 21.585938 0.53125 22.359375 0 C 22.960938 -0.457031 23.628906 -0.929688 24.359375 -1.421875 C 25.085938 -1.921875 25.875 -2.363281 26.71875 -2.75 C 19.300781 -6.039062 13.660156 -11.007812 9.796875 -17.65625 C 5.941406 -24.300781 4.015625 -32.25 4.015625 -41.5 Z M 44.703125 -77.5 C 40.660156 -77.039062 37.625 -75.128906 35.59375 -71.765625 C 33.570312 -68.398438 32.390625 -63.96875 32.046875 -58.46875 C 31.703125 -52.96875 31.945312 -46.660156 32.78125 -39.546875 C 33.625 -32.441406 34.882812 -26.269531 36.5625 -21.03125 C 38.25 -15.800781 40.46875 -11.804688 43.21875 -9.046875 C 45.96875 -6.296875 49.367188 -5.15625 53.421875 -5.625 C 57.546875 -6.15625 60.582031 -8.082031 62.53125 -11.40625 C 64.476562 -14.726562 65.625 -19.140625 65.96875 -24.640625 C 66.3125 -30.148438 66.066406 -36.421875 65.234375 -43.453125 C 64.390625 -50.554688 63.125 -56.742188 61.4375 -62.015625 C 59.757812 -67.296875 57.5625 -71.328125 54.84375 -74.109375 C 52.132812 -76.898438 48.753906 -78.03125 44.703125 -77.5 Z M 44.703125 -77.5 "/></g></g></g><g fill="#000000" fill-opacity="1"><g transform="translate(108.052279, 107.907412)"><g><path d="M 2.75 -45.515625 C 1.90625 -45.585938 1.289062 -45.988281 0.90625 -46.71875 C 0.53125 -47.445312 0.414062 -48.226562 0.5625 -49.0625 C 0.71875 -49.90625 1.179688 -50.519531 1.953125 -50.90625 C 4.171875 -52.195312 7 -53.207031 10.4375 -53.9375 C 13.875 -54.664062 17.195312 -55.03125 20.40625 -55.03125 C 23.382812 -55.03125 25.769531 -54.757812 27.5625 -54.21875 C 29.363281 -53.6875 30.664062 -52.597656 31.46875 -50.953125 C 32.269531 -49.316406 32.671875 -46.851562 32.671875 -43.5625 L 32.5625 -23.046875 C 32.5625 -20.984375 32.65625 -19.050781 32.84375 -17.25 C 33.03125 -15.457031 33.601562 -14.003906 34.5625 -12.890625 C 35.519531 -11.785156 37.066406 -11.234375 39.203125 -11.234375 C 41.648438 -11.304688 43.695312 -12.507812 45.34375 -14.84375 C 46.988281 -17.175781 47.960938 -19.753906 48.265625 -22.578125 L 48.375 -38.859375 L 48.375 -41.734375 C 48.375 -43.566406 48.066406 -44.632812 47.453125 -44.9375 C 46.847656 -45.238281 45.78125 -45.429688 44.25 -45.515625 C 43.40625 -45.585938 42.789062 -45.988281 42.40625 -46.71875 C 42.03125 -47.445312 41.914062 -48.226562 42.0625 -49.0625 C 42.21875 -49.90625 42.679688 -50.519531 43.453125 -50.90625 C 45.660156 -52.195312 48.484375 -53.207031 51.921875 -53.9375 C 55.367188 -54.664062 58.695312 -55.03125 61.90625 -55.03125 C 64.882812 -55.03125 67.269531 -54.757812 69.0625 -54.21875 C 70.863281 -53.6875 72.144531 -52.597656 72.90625 -50.953125 C 73.675781 -49.316406 74.0625 -46.851562 74.0625 -43.5625 L 74.0625 -39.09375 C 74.0625 -37.101562 74.0625 -34.804688 74.0625 -32.203125 C 74.0625 -29.609375 74.039062 -26.992188 74 -24.359375 C 73.957031 -21.722656 73.9375 -19.316406 73.9375 -17.140625 C 73.9375 -14.960938 73.9375 -13.300781 73.9375 -12.15625 C 73.9375 -8.488281 74.851562 -6.539062 76.6875 -6.3125 C 77.53125 -6.226562 78.316406 -6.492188 79.046875 -7.109375 C 79.773438 -7.722656 80.519531 -7.953125 81.28125 -7.796875 C 81.96875 -7.640625 82.3125 -7.0625 82.3125 -6.0625 C 82.3125 -5.070312 81.753906 -3.984375 80.640625 -2.796875 C 79.535156 -1.617188 77.703125 -0.59375 75.140625 0.28125 C 72.585938 1.164062 69.128906 1.566406 64.765625 1.484375 C 60.410156 1.410156 56.6875 0.476562 53.59375 -1.3125 C 50.5 -3.113281 48.722656 -5.8125 48.265625 -9.40625 C 46.203125 -6.039062 43.316406 -3.457031 39.609375 -1.65625 C 35.898438 0.132812 32.019531 1.109375 27.96875 1.265625 C 20.632812 1.335938 15.285156 -0.078125 11.921875 -2.984375 C 8.554688 -5.890625 6.875 -10.359375 6.875 -16.390625 L 6.875 -41.734375 C 6.875 -43.566406 6.566406 -44.632812 5.953125 -44.9375 C 5.347656 -45.238281 4.28125 -45.429688 2.75 -45.515625 Z M 2.75 -45.515625 "/></g></g></g><g fill="#000000" fill-opacity="1"><g transform="translate(192.077696, 107.907412)"><g><path d="M 2.859375 -44.9375 C 2.023438 -45.007812 1.414062 -45.410156 1.03125 -46.140625 C 0.644531 -46.867188 0.53125 -47.648438 0.6875 -48.484375 C 0.84375 -49.328125 1.300781 -49.941406 2.0625 -50.328125 C 4.664062 -51.859375 7.722656 -53.039062 11.234375 -53.875 C 14.753906 -54.71875 18.15625 -55.140625 21.4375 -55.140625 C 23.726562 -55.140625 25.734375 -54.945312 27.453125 -54.5625 C 29.171875 -54.1875 30.546875 -53.367188 31.578125 -52.109375 C 32.609375 -50.847656 33.203125 -48.878906 33.359375 -46.203125 C 34.578125 -48.335938 36.3125 -50.265625 38.5625 -51.984375 C 40.820312 -53.703125 43.75 -54.789062 47.34375 -55.25 C 52.613281 -55.9375 57.195312 -55.613281 61.09375 -54.28125 C 65 -52.945312 68.039062 -50.976562 70.21875 -48.375 C 72.394531 -45.78125 73.445312 -42.914062 73.375 -39.78125 C 73.289062 -36.570312 72.0625 -33.878906 69.6875 -31.703125 C 67.320312 -29.523438 63.695312 -28.664062 58.8125 -29.125 C 56.207031 -29.351562 54.253906 -29.984375 52.953125 -31.015625 C 51.660156 -32.046875 50.820312 -33.304688 50.4375 -34.796875 C 50.0625 -36.285156 49.851562 -37.8125 49.8125 -39.375 C 49.769531 -40.945312 49.726562 -42.421875 49.6875 -43.796875 C 49.65625 -45.171875 49.367188 -46.273438 48.828125 -47.109375 C 48.296875 -47.953125 47.226562 -48.335938 45.625 -48.265625 C 43.71875 -48.191406 42.132812 -47.519531 40.875 -46.25 C 39.613281 -44.988281 38.617188 -43.40625 37.890625 -41.5 C 37.160156 -39.59375 36.640625 -37.625 36.328125 -35.59375 C 36.023438 -33.570312 35.875 -31.757812 35.875 -30.15625 L 35.875 -11.234375 C 35.875 -10.242188 36.160156 -9.304688 36.734375 -8.421875 C 37.316406 -7.546875 38.023438 -6.800781 38.859375 -6.1875 C 39.242188 -6.039062 39.585938 -5.851562 39.890625 -5.625 C 40.203125 -5.394531 40.507812 -5.160156 40.8125 -4.921875 C 41.882812 -4.234375 42.207031 -3.238281 41.78125 -1.9375 C 41.363281 -0.644531 40.546875 0 39.328125 0 L 6.53125 0 C 5.382812 0 4.597656 -0.644531 4.171875 -1.9375 C 3.753906 -3.238281 4.046875 -4.234375 5.046875 -4.921875 C 5.429688 -5.160156 5.8125 -5.394531 6.1875 -5.625 C 6.570312 -5.851562 6.957031 -6.082031 7.34375 -6.3125 C 9.40625 -7.300781 10.4375 -8.941406 10.4375 -11.234375 L 10.4375 -42.984375 C 10.4375 -43.898438 10.1875 -44.507812 9.6875 -44.8125 C 9.1875 -45.125 8.519531 -45.28125 7.6875 -45.28125 C 6.914062 -45.28125 6.109375 -45.222656 5.265625 -45.109375 C 4.429688 -44.992188 3.628906 -44.9375 2.859375 -44.9375 Z M 2.859375 -44.9375 "/></g></g></g><g fill="#000000" fill-opacity="1"><g transform="translate(266.244746, 107.907412)"><g><path d="M 2.515625 -12.375 C 2.140625 -16.582031 2.828125 -20.0625 4.578125 -22.8125 C 6.335938 -25.5625 8.742188 -27.738281 11.796875 -29.34375 C 14.859375 -30.945312 18.164062 -32.070312 21.71875 -32.71875 C 25.28125 -33.375 28.625 -33.703125 31.75 -33.703125 C 35.957031 -33.703125 39.207031 -33.320312 41.5 -32.5625 L 41.5 -36.453125 C 41.5 -40.804688 41 -44.035156 40 -46.140625 C 39.007812 -48.242188 37.253906 -49.332031 34.734375 -49.40625 C 31.828125 -49.488281 29.9375 -48.742188 29.0625 -47.171875 C 28.1875 -45.609375 27.441406 -43.71875 26.828125 -41.5 C 26.441406 -40.050781 25.367188 -38.925781 23.609375 -38.125 C 21.859375 -37.320312 19.988281 -36.921875 18 -36.921875 C 15.625 -36.921875 13.425781 -37.472656 11.40625 -38.578125 C 9.382812 -39.679688 8.445312 -41.304688 8.59375 -43.453125 C 8.820312 -46.960938 11.4375 -49.804688 16.4375 -51.984375 C 21.445312 -54.160156 28.003906 -55.210938 36.109375 -55.140625 C 41.992188 -55.140625 47.320312 -54.394531 52.09375 -52.90625 C 56.875 -51.414062 60.660156 -48.988281 63.453125 -45.625 C 66.242188 -42.257812 67.640625 -37.828125 67.640625 -32.328125 C 67.554688 -28.359375 67.515625 -24.578125 67.515625 -20.984375 C 67.515625 -17.390625 67.515625 -14.445312 67.515625 -12.15625 C 67.515625 -8.488281 68.394531 -6.539062 70.15625 -6.3125 C 71.070312 -6.226562 71.875 -6.492188 72.5625 -7.109375 C 73.25 -7.722656 73.976562 -7.953125 74.75 -7.796875 C 75.4375 -7.640625 75.78125 -7.0625 75.78125 -6.0625 C 75.78125 -5.070312 75.222656 -3.984375 74.109375 -2.796875 C 73.003906 -1.617188 71.191406 -0.59375 68.671875 0.28125 C 66.148438 1.164062 62.710938 1.566406 58.359375 1.484375 C 54.148438 1.410156 50.457031 0.535156 47.28125 -1.140625 C 44.113281 -2.828125 42.222656 -5.351562 41.609375 -8.71875 C 39.859375 -5.351562 37.144531 -2.789062 33.46875 -1.03125 C 29.800781 0.726562 25.90625 1.609375 21.78125 1.609375 C 16.582031 1.609375 12.1875 0.347656 8.59375 -2.171875 C 5 -4.703125 2.972656 -8.101562 2.515625 -12.375 Z M 27.859375 -19.03125 C 27.628906 -16.195312 28.125 -13.84375 29.34375 -11.96875 C 30.570312 -10.101562 32.445312 -9.207031 34.96875 -9.28125 C 37.644531 -9.363281 39.363281 -10.492188 40.125 -12.671875 C 40.882812 -14.847656 41.304688 -17.425781 41.390625 -20.40625 L 41.5 -26.71875 C 41.113281 -26.863281 40.425781 -27.070312 39.4375 -27.34375 C 38.445312 -27.613281 37.375 -27.75 36.21875 -27.75 C 34.46875 -27.75 32.734375 -27.191406 31.015625 -26.078125 C 29.296875 -24.972656 28.242188 -22.625 27.859375 -19.03125 Z M 27.859375 -19.03125 "/></g></g></g><g fill="#000000" fill-opacity="1"><g transform="translate(343.850747, 107.907412)"><g><path d="M 2.859375 -44.9375 C 2.023438 -45.007812 1.414062 -45.410156 1.03125 -46.140625 C 0.644531 -46.867188 0.53125 -47.648438 0.6875 -48.484375 C 0.84375 -49.328125 1.300781 -49.941406 2.0625 -50.328125 C 4.664062 -51.859375 7.953125 -53.039062 11.921875 -53.875 C 15.898438 -54.71875 19.722656 -55.140625 23.390625 -55.140625 C 26.210938 -55.140625 28.539062 -54.910156 30.375 -54.453125 C 32.207031 -53.992188 33.582031 -53 34.5 -51.46875 C 35.414062 -49.945312 35.875 -47.539062 35.875 -44.25 C 38.019531 -47.457031 40.832031 -50.070312 44.3125 -52.09375 C 47.789062 -54.125 51.550781 -55.175781 55.59375 -55.25 C 62.851562 -55.40625 68.085938 -54.085938 71.296875 -51.296875 C 74.515625 -48.515625 76.125 -43.953125 76.125 -37.609375 L 76.125 -11.234375 C 76.125 -9.097656 77.117188 -7.414062 79.109375 -6.1875 C 79.484375 -6.039062 79.820312 -5.851562 80.125 -5.625 C 80.4375 -5.394531 80.742188 -5.160156 81.046875 -4.921875 C 82.046875 -4.234375 82.351562 -3.238281 81.96875 -1.9375 C 81.582031 -0.644531 80.78125 0 79.5625 0 L 60.640625 0 C 57.890625 0 55.769531 -0.53125 54.28125 -1.59375 C 52.789062 -2.664062 51.773438 -4.082031 51.234375 -5.84375 C 50.703125 -7.601562 50.398438 -9.4375 50.328125 -11.34375 L 50.4375 -29.921875 C 50.4375 -31.984375 50.414062 -34.046875 50.375 -36.109375 C 50.34375 -38.171875 49.984375 -39.910156 49.296875 -41.328125 C 48.609375 -42.742188 47.347656 -43.410156 45.515625 -43.328125 C 43.828125 -43.328125 42.296875 -42.660156 40.921875 -41.328125 C 39.546875 -39.992188 38.414062 -38.367188 37.53125 -36.453125 C 36.65625 -34.546875 36.101562 -32.597656 35.875 -30.609375 L 35.875 -11.234375 C 35.875 -10.242188 36.160156 -9.304688 36.734375 -8.421875 C 37.316406 -7.546875 38.023438 -6.800781 38.859375 -6.1875 C 39.242188 -6.039062 39.585938 -5.851562 39.890625 -5.625 C 40.203125 -5.394531 40.507812 -5.160156 40.8125 -4.921875 C 41.882812 -4.234375 42.207031 -3.238281 41.78125 -1.9375 C 41.363281 -0.644531 40.546875 0 39.328125 0 L 6.53125 0 C 5.382812 0 4.597656 -0.644531 4.171875 -1.9375 C 3.753906 -3.238281 4.046875 -4.234375 5.046875 -4.921875 C 5.429688 -5.160156 5.8125 -5.394531 6.1875 -5.625 C 6.570312 -5.851562 6.957031 -6.082031 7.34375 -6.3125 C 9.40625 -7.300781 10.4375 -8.941406 10.4375 -11.234375 L 10.4375 -42.984375 C 10.4375 -43.898438 10.1875 -44.507812 9.6875 -44.8125 C 9.1875 -45.125 8.519531 -45.28125 7.6875 -45.28125 C 6.914062 -45.28125 6.109375 -45.222656 5.265625 -45.109375 C 4.429688 -44.992188 3.628906 -44.9375 2.859375 -44.9375 Z M 2.859375 -44.9375 "/></g></g></g><g fill="#000000" fill-opacity="1"><g transform="translate(427.532261, 107.907412)"><g><path d="M 4.703125 0 C 3.554688 0 2.789062 -0.644531 2.40625 -1.9375 C 2.019531 -3.238281 2.328125 -4.234375 3.328125 -4.921875 C 3.859375 -5.304688 4.625 -5.769531 5.625 -6.3125 C 7.6875 -7.375 8.71875 -9.015625 8.71875 -11.234375 L 8.71875 -71.875 C 8.71875 -74.164062 7.6875 -75.8125 5.625 -76.8125 C 4.625 -77.34375 3.859375 -77.800781 3.328125 -78.1875 C 2.328125 -78.875 2.019531 -79.863281 2.40625 -81.15625 C 2.789062 -82.457031 3.554688 -83.109375 4.703125 -83.109375 L 40.234375 -83.109375 C 41.460938 -83.109375 42.265625 -82.457031 42.640625 -81.15625 C 43.023438 -79.863281 42.722656 -78.875 41.734375 -78.1875 C 41.421875 -77.957031 41.09375 -77.726562 40.75 -77.5 C 40.40625 -77.269531 40.082031 -77.078125 39.78125 -76.921875 C 37.789062 -75.703125 36.796875 -74.019531 36.796875 -71.875 L 36.796875 -46.65625 L 69.46875 -73.25 C 71 -74.550781 71 -75.96875 69.46875 -77.5 C 69.320312 -77.644531 69.171875 -77.773438 69.015625 -77.890625 C 68.859375 -78.015625 68.664062 -78.148438 68.4375 -78.296875 C 67.519531 -78.910156 67.253906 -79.863281 67.640625 -81.15625 C 68.023438 -82.457031 68.789062 -83.109375 69.9375 -83.109375 L 87.359375 -83.109375 C 88.503906 -83.109375 89.285156 -82.457031 89.703125 -81.15625 C 90.128906 -79.863281 89.84375 -78.910156 88.84375 -78.296875 C 88.382812 -77.992188 87.882812 -77.707031 87.34375 -77.4375 C 86.8125 -77.164062 86.242188 -76.914062 85.640625 -76.6875 C 84.796875 -76.3125 83.835938 -75.796875 82.765625 -75.140625 C 81.703125 -74.492188 80.75 -73.828125 79.90625 -73.140625 L 64.65625 -60.296875 L 91.375 -10.3125 C 92.4375 -8.332031 93.960938 -6.84375 95.953125 -5.84375 C 96.253906 -5.769531 96.539062 -5.632812 96.8125 -5.4375 C 97.082031 -5.25 97.367188 -5.078125 97.671875 -4.921875 C 98.671875 -4.234375 98.976562 -3.238281 98.59375 -1.9375 C 98.207031 -0.644531 97.40625 0 96.1875 0 L 56.40625 0 C 55.175781 0 54.367188 -0.644531 53.984375 -1.9375 C 53.609375 -3.238281 53.914062 -4.234375 54.90625 -4.921875 C 55.21875 -5.078125 55.546875 -5.269531 55.890625 -5.5 C 56.234375 -5.726562 56.554688 -5.921875 56.859375 -6.078125 C 58.921875 -7.222656 59.457031 -8.75 58.46875 -10.65625 L 43.21875 -42.296875 L 36.796875 -36.921875 L 36.796875 -11.234375 C 36.796875 -9.097656 37.789062 -7.414062 39.78125 -6.1875 C 40.082031 -6.039062 40.40625 -5.851562 40.75 -5.625 C 41.09375 -5.394531 41.421875 -5.160156 41.734375 -4.921875 C 42.722656 -4.234375 43.023438 -3.238281 42.640625 -1.9375 C 42.265625 -0.644531 41.460938 0 40.234375 0 Z M 4.703125 0 "/></g></g></g><g fill="#000000" fill-opacity="1"><g transform="translate(526.230602, 107.907412)"><g><path d="M 2.859375 -75.546875 C 2.023438 -75.617188 1.414062 -76.019531 1.03125 -76.75 C 0.644531 -77.476562 0.53125 -78.257812 0.6875 -79.09375 C 0.84375 -79.9375 1.300781 -80.550781 2.0625 -80.9375 C 4.582031 -82.46875 7.847656 -83.648438 11.859375 -84.484375 C 15.878906 -85.328125 19.757812 -85.75 23.5 -85.75 C 26.5625 -85.75 29.023438 -85.5 30.890625 -85 C 32.765625 -84.507812 34.117188 -83.441406 34.953125 -81.796875 C 35.796875 -80.148438 36.21875 -77.609375 36.21875 -74.171875 L 36.21875 -44.140625 C 38.363281 -47.421875 41.175781 -50.070312 44.65625 -52.09375 C 48.132812 -54.125 51.9375 -55.175781 56.0625 -55.25 C 63.320312 -55.40625 68.535156 -54.085938 71.703125 -51.296875 C 74.878906 -48.515625 76.46875 -43.953125 76.46875 -37.609375 L 76.46875 -12.375 L 76.578125 -12.375 L 76.578125 -11.234375 C 76.578125 -9.097656 77.570312 -7.414062 79.5625 -6.1875 C 79.863281 -6.039062 80.1875 -5.851562 80.53125 -5.625 C 80.875 -5.394531 81.203125 -5.160156 81.515625 -4.921875 C 82.503906 -4.234375 82.785156 -3.238281 82.359375 -1.9375 C 81.941406 -0.644531 81.160156 0 80.015625 0 L 61.109375 0 C 58.273438 0 56.128906 -0.53125 54.671875 -1.59375 C 53.222656 -2.664062 52.210938 -4.082031 51.640625 -5.84375 C 51.066406 -7.601562 50.742188 -9.4375 50.671875 -11.34375 L 50.78125 -29.921875 C 50.78125 -31.984375 50.757812 -34.046875 50.71875 -36.109375 C 50.6875 -38.171875 50.34375 -39.910156 49.6875 -41.328125 C 49.039062 -42.742188 47.800781 -43.410156 45.96875 -43.328125 C 44.207031 -43.328125 42.601562 -42.582031 41.15625 -41.09375 C 39.707031 -39.601562 38.539062 -37.804688 37.65625 -35.703125 C 36.78125 -33.609375 36.300781 -31.53125 36.21875 -29.46875 L 36.21875 -11.234375 C 36.21875 -10.242188 36.503906 -9.304688 37.078125 -8.421875 C 37.660156 -7.546875 38.367188 -6.800781 39.203125 -6.1875 C 39.585938 -6.039062 39.929688 -5.851562 40.234375 -5.625 C 40.546875 -5.394531 40.851562 -5.160156 41.15625 -4.921875 C 42.226562 -4.234375 42.550781 -3.238281 42.125 -1.9375 C 41.707031 -0.644531 40.890625 0 39.671875 0 L 6.53125 0 C 5.382812 0 4.597656 -0.644531 4.171875 -1.9375 C 3.753906 -3.238281 4.046875 -4.234375 5.046875 -4.921875 C 5.429688 -5.160156 5.8125 -5.394531 6.1875 -5.625 C 6.570312 -5.851562 6.957031 -6.082031 7.34375 -6.3125 C 9.40625 -7.300781 10.4375 -8.941406 10.4375 -11.234375 L 10.4375 -73.59375 C 10.4375 -74.507812 10.1875 -75.117188 9.6875 -75.421875 C 9.1875 -75.734375 8.519531 -75.890625 7.6875 -75.890625 C 6.914062 -75.890625 6.109375 -75.832031 5.265625 -75.71875 C 4.429688 -75.601562 3.628906 -75.546875 2.859375 -75.546875 Z M 2.859375 -75.546875 "/></g></g></g><g fill="#000000" fill-opacity="1"><g transform="translate(610.256041, 107.907412)"><g><path d="M 2.859375 -44.9375 C 2.023438 -45.007812 1.414062 -45.410156 1.03125 -46.140625 C 0.644531 -46.867188 0.53125 -47.648438 0.6875 -48.484375 C 0.84375 -49.328125 1.300781 -49.941406 2.0625 -50.328125 C 4.664062 -51.859375 7.972656 -53.039062 11.984375 -53.875 C 15.992188 -54.71875 19.867188 -55.140625 23.609375 -55.140625 C 26.515625 -55.140625 28.882812 -54.890625 30.71875 -54.390625 C 32.550781 -53.898438 33.925781 -52.867188 34.84375 -51.296875 C 35.757812 -49.734375 36.21875 -47.304688 36.21875 -44.015625 C 38.363281 -47.378906 41.175781 -50.070312 44.65625 -52.09375 C 48.132812 -54.125 51.9375 -55.175781 56.0625 -55.25 C 62.175781 -55.40625 66.835938 -54.523438 70.046875 -52.609375 C 73.253906 -50.703125 75.28125 -47.609375 76.125 -43.328125 C 78.1875 -46.847656 81.015625 -49.695312 84.609375 -51.875 C 88.203125 -54.050781 92.097656 -55.175781 96.296875 -55.25 C 103.554688 -55.40625 108.789062 -54.085938 112 -51.296875 C 115.207031 -48.515625 116.8125 -43.953125 116.8125 -37.609375 L 116.8125 -12.375 L 116.9375 -12.375 L 116.9375 -11.234375 C 116.9375 -9.171875 117.890625 -7.488281 119.796875 -6.1875 C 120.179688 -6.039062 120.546875 -5.851562 120.890625 -5.625 C 121.234375 -5.394531 121.554688 -5.160156 121.859375 -4.921875 C 122.859375 -4.234375 123.144531 -3.238281 122.71875 -1.9375 C 122.300781 -0.644531 121.484375 0 120.265625 0 L 101.453125 0 C 98.628906 0 96.488281 -0.53125 95.03125 -1.59375 C 93.582031 -2.664062 92.570312 -4.082031 92 -5.84375 C 91.425781 -7.601562 91.101562 -9.4375 91.03125 -11.34375 L 91.140625 -29.921875 C 91.140625 -31.984375 91.117188 -34.046875 91.078125 -36.109375 C 91.046875 -38.171875 90.703125 -39.910156 90.046875 -41.328125 C 89.398438 -42.742188 88.160156 -43.410156 86.328125 -43.328125 C 84.640625 -43.328125 83.070312 -42.640625 81.625 -41.265625 C 80.175781 -39.890625 79.007812 -38.207031 78.125 -36.21875 C 77.25 -34.238281 76.734375 -32.253906 76.578125 -30.265625 L 76.578125 -11.234375 C 76.578125 -9.097656 77.570312 -7.414062 79.5625 -6.1875 C 79.945312 -6.039062 80.289062 -5.851562 80.59375 -5.625 C 80.894531 -5.394531 81.203125 -5.160156 81.515625 -4.921875 C 82.503906 -4.234375 82.804688 -3.238281 82.421875 -1.9375 C 82.046875 -0.644531 81.242188 0 80.015625 0 L 61.109375 0 C 58.347656 0 56.222656 -0.53125 54.734375 -1.59375 C 53.242188 -2.664062 52.234375 -4.082031 51.703125 -5.84375 C 51.171875 -7.601562 50.863281 -9.4375 50.78125 -11.34375 L 50.78125 -29.921875 C 50.863281 -31.984375 50.863281 -34.046875 50.78125 -36.109375 C 50.707031 -38.171875 50.34375 -39.910156 49.6875 -41.328125 C 49.039062 -42.742188 47.800781 -43.410156 45.96875 -43.328125 C 44.207031 -43.328125 42.582031 -42.5625 41.09375 -41.03125 C 39.601562 -39.507812 38.414062 -37.660156 37.53125 -35.484375 C 36.65625 -33.304688 36.21875 -31.1875 36.21875 -29.125 L 36.21875 -11.234375 C 36.21875 -10.242188 36.503906 -9.304688 37.078125 -8.421875 C 37.660156 -7.546875 38.367188 -6.800781 39.203125 -6.1875 C 39.585938 -6.039062 39.929688 -5.851562 40.234375 -5.625 C 40.546875 -5.394531 40.851562 -5.160156 41.15625 -4.921875 C 42.226562 -4.234375 42.550781 -3.238281 42.125 -1.9375 C 41.707031 -0.644531 40.890625 0 39.671875 0 L 6.53125 0 C 5.382812 0 4.597656 -0.644531 4.171875 -1.9375 C 3.753906 -3.238281 4.046875 -4.234375 5.046875 -4.921875 C 5.429688 -5.160156 5.8125 -5.394531 6.1875 -5.625 C 6.570312 -5.851562 6.957031 -6.082031 7.34375 -6.3125 C 9.40625 -7.300781 10.4375 -8.941406 10.4375 -11.234375 L 10.4375 -42.984375 C 10.4375 -43.898438 10.1875 -44.507812 9.6875 -44.8125 C 9.1875 -45.125 8.519531 -45.28125 7.6875 -45.28125 C 6.914062 -45.28125 6.109375 -45.222656 5.265625 -45.109375 C 4.429688 -44.992188 3.628906 -44.9375 2.859375 -44.9375 Z M 2.859375 -44.9375 "/></g></g></g><g fill="#000000" fill-opacity="1"><g transform="translate(734.402752, 107.907412)"><g><path d="M 1.375 -26.828125 C 1.21875 -33.015625 2.59375 -38.226562 5.5 -42.46875 C 8.40625 -46.71875 12.378906 -49.910156 17.421875 -52.046875 C 22.460938 -54.179688 28.15625 -55.25 34.5 -55.25 C 39.851562 -55.25 44.515625 -54.484375 48.484375 -52.953125 C 52.460938 -51.429688 55.632812 -49.390625 58 -46.828125 C 60.375 -44.265625 61.828125 -41.421875 62.359375 -38.296875 C 62.898438 -35.003906 62.289062 -32.191406 60.53125 -29.859375 C 58.769531 -27.535156 56.320312 -25.609375 53.1875 -24.078125 C 50.0625 -22.546875 46.679688 -21.414062 43.046875 -20.6875 C 39.421875 -19.96875 36.039062 -19.609375 32.90625 -19.609375 C 30.914062 -19.609375 29.15625 -19.722656 27.625 -19.953125 C 29.226562 -15.742188 31.3125 -12.738281 33.875 -10.9375 C 36.4375 -9.144531 39.359375 -8.210938 42.640625 -8.140625 C 46.234375 -8.140625 49.328125 -9.09375 51.921875 -11 C 54.523438 -12.914062 56.207031 -15.671875 56.96875 -19.265625 C 57.582031 -21.785156 58.960938 -22.929688 61.109375 -22.703125 C 63.242188 -22.390625 64.082031 -20.898438 63.625 -18.234375 C 62.175781 -11.203125 58.738281 -6.132812 53.3125 -3.03125 C 47.882812 0.0625 41.082031 1.609375 32.90625 1.609375 C 23.425781 1.609375 15.859375 -0.816406 10.203125 -5.671875 C 4.546875 -10.523438 1.601562 -17.578125 1.375 -26.828125 Z M 31.296875 -48.609375 C 29.617188 -48.304688 28.222656 -47.082031 27.109375 -44.9375 C 26.003906 -42.800781 25.335938 -40.050781 25.109375 -36.6875 C 24.878906 -33.320312 25.1875 -29.648438 26.03125 -25.671875 C 27.78125 -25.523438 29.707031 -25.566406 31.8125 -25.796875 C 33.914062 -26.023438 35.828125 -26.613281 37.546875 -27.5625 C 39.265625 -28.519531 40.390625 -29.957031 40.921875 -31.875 C 41.765625 -34.769531 41.800781 -37.570312 41.03125 -40.28125 C 40.269531 -43 39.007812 -45.179688 37.25 -46.828125 C 35.5 -48.472656 33.515625 -49.066406 31.296875 -48.609375 Z M 31.296875 -48.609375 "/></g></g></g><g fill="#000000" fill-opacity="1"><g transform="translate(801.348, 107.907412)"><g><path d="M 2.859375 -44.9375 C 2.023438 -45.007812 1.414062 -45.410156 1.03125 -46.140625 C 0.644531 -46.867188 0.53125 -47.648438 0.6875 -48.484375 C 0.84375 -49.328125 1.300781 -49.941406 2.0625 -50.328125 C 4.664062 -51.859375 7.722656 -53.039062 11.234375 -53.875 C 14.753906 -54.71875 18.15625 -55.140625 21.4375 -55.140625 C 23.726562 -55.140625 25.734375 -54.945312 27.453125 -54.5625 C 29.171875 -54.1875 30.546875 -53.367188 31.578125 -52.109375 C 32.609375 -50.847656 33.203125 -48.878906 33.359375 -46.203125 C 34.578125 -48.335938 36.3125 -50.265625 38.5625 -51.984375 C 40.820312 -53.703125 43.75 -54.789062 47.34375 -55.25 C 52.613281 -55.9375 57.195312 -55.613281 61.09375 -54.28125 C 65 -52.945312 68.039062 -50.976562 70.21875 -48.375 C 72.394531 -45.78125 73.445312 -42.914062 73.375 -39.78125 C 73.289062 -36.570312 72.0625 -33.878906 69.6875 -31.703125 C 67.320312 -29.523438 63.695312 -28.664062 58.8125 -29.125 C 56.207031 -29.351562 54.253906 -29.984375 52.953125 -31.015625 C 51.660156 -32.046875 50.820312 -33.304688 50.4375 -34.796875 C 50.0625 -36.285156 49.851562 -37.8125 49.8125 -39.375 C 49.769531 -40.945312 49.726562 -42.421875 49.6875 -43.796875 C 49.65625 -45.171875 49.367188 -46.273438 48.828125 -47.109375 C 48.296875 -47.953125 47.226562 -48.335938 45.625 -48.265625 C 43.71875 -48.191406 42.132812 -47.519531 40.875 -46.25 C 39.613281 -44.988281 38.617188 -43.40625 37.890625 -41.5 C 37.160156 -39.59375 36.640625 -37.625 36.328125 -35.59375 C 36.023438 -33.570312 35.875 -31.757812 35.875 -30.15625 L 35.875 -11.234375 C 35.875 -10.242188 36.160156 -9.304688 36.734375 -8.421875 C 37.316406 -7.546875 38.023438 -6.800781 38.859375 -6.1875 C 39.242188 -6.039062 39.585938 -5.851562 39.890625 -5.625 C 40.203125 -5.394531 40.507812 -5.160156 40.8125 -4.921875 C 41.882812 -4.234375 42.207031 -3.238281 41.78125 -1.9375 C 41.363281 -0.644531 40.546875 0 39.328125 0 L 6.53125 0 C 5.382812 0 4.597656 -0.644531 4.171875 -1.9375 C 3.753906 -3.238281 4.046875 -4.234375 5.046875 -4.921875 C 5.429688 -5.160156 5.8125 -5.394531 6.1875 -5.625 C 6.570312 -5.851562 6.957031 -6.082031 7.34375 -6.3125 C 9.40625 -7.300781 10.4375 -8.941406 10.4375 -11.234375 L 10.4375 -42.984375 C 10.4375 -43.898438 10.1875 -44.507812 9.6875 -44.8125 C 9.1875 -45.125 8.519531 -45.28125 7.6875 -45.28125 C 6.914062 -45.28125 6.109375 -45.222656 5.265625 -45.109375 C 4.429688 -44.992188 3.628906 -44.9375 2.859375 -44.9375 Z M 2.859375 -44.9375 "/></g></g></g><g fill="#000000" fill-opacity="1"><g transform="translate(729.843975, 145.380033)"><g><path d="M 3.625 -5.6875 C 3.625 -7.4375 4.171875 -8.8125 5.265625 -9.8125 C 6.367188 -10.820312 7.851562 -11.328125 9.71875 -11.328125 C 11.613281 -11.328125 13.097656 -10.820312 14.171875 -9.8125 C 15.253906 -8.8125 15.796875 -7.4375 15.796875 -5.6875 C 15.796875 -3.863281 15.253906 -2.457031 14.171875 -1.46875 C 13.097656 -0.488281 11.613281 0 9.71875 0 C 7.894531 0 6.421875 -0.507812 5.296875 -1.53125 C 4.179688 -2.550781 3.625 -3.9375 3.625 -5.6875 Z M 3.625 -5.6875 "/></g></g></g><g fill="#000000" fill-opacity="1"><g transform="translate(749.267594, 145.380033)"><g><path d="M 0.671875 -13.0625 C 0.597656 -16.070312 1.265625 -18.609375 2.671875 -20.671875 C 4.085938 -22.742188 6.023438 -24.300781 8.484375 -25.34375 C 10.941406 -26.382812 13.710938 -26.90625 16.796875 -26.90625 C 19.398438 -26.90625 21.695312 -26.578125 23.6875 -25.921875 C 25.675781 -25.273438 27.253906 -24.382812 28.421875 -23.25 C 29.597656 -22.113281 30.242188 -20.816406 30.359375 -19.359375 C 30.546875 -17.796875 30.015625 -16.484375 28.765625 -15.421875 C 27.523438 -14.367188 25.695312 -13.953125 23.28125 -14.171875 C 21.894531 -14.328125 20.867188 -14.679688 20.203125 -15.234375 C 19.535156 -15.796875 19.097656 -16.472656 18.890625 -17.265625 C 18.679688 -18.066406 18.554688 -18.882812 18.515625 -19.71875 C 18.484375 -20.5625 18.421875 -21.316406 18.328125 -21.984375 C 18.234375 -22.660156 17.960938 -23.164062 17.515625 -23.5 C 17.078125 -23.832031 16.316406 -23.890625 15.234375 -23.671875 C 14.421875 -23.515625 13.742188 -22.90625 13.203125 -21.84375 C 12.660156 -20.789062 12.332031 -19.4375 12.21875 -17.78125 C 12.113281 -16.125 12.28125 -14.304688 12.71875 -12.328125 C 13.394531 -9.359375 14.421875 -7.226562 15.796875 -5.9375 C 17.171875 -4.65625 18.828125 -4 20.765625 -3.96875 C 22.515625 -3.96875 24.019531 -4.429688 25.28125 -5.359375 C 26.550781 -6.285156 27.367188 -7.625 27.734375 -9.375 C 28.035156 -10.601562 28.707031 -11.160156 29.75 -11.046875 C 30.789062 -10.898438 31.195312 -10.175781 30.96875 -8.875 C 30.269531 -5.445312 28.597656 -2.976562 25.953125 -1.46875 C 23.304688 0.03125 19.992188 0.78125 16.015625 0.78125 C 11.398438 0.78125 7.71875 -0.398438 4.96875 -2.765625 C 2.21875 -5.128906 0.785156 -8.5625 0.671875 -13.0625 Z M 0.671875 -13.0625 "/></g></g></g><g fill="#000000" fill-opacity="1"><g transform="translate(781.863546, 145.380033)"><g><path d="M 0.671875 -13.0625 C 0.671875 -17.5625 2.070312 -20.992188 4.875 -23.359375 C 7.6875 -25.722656 11.398438 -26.90625 16.015625 -26.90625 C 20.671875 -26.90625 24.398438 -25.773438 27.203125 -23.515625 C 30.015625 -21.265625 31.421875 -17.78125 31.421875 -13.0625 C 31.421875 -8.332031 30.015625 -4.84375 27.203125 -2.59375 C 24.398438 -0.34375 20.671875 0.78125 16.015625 0.78125 C 11.398438 0.78125 7.6875 -0.398438 4.875 -2.765625 C 2.070312 -5.128906 0.671875 -8.5625 0.671875 -13.0625 Z M 14.234375 -23.671875 C 13.410156 -23.515625 12.84375 -23.082031 12.53125 -22.375 C 12.21875 -21.675781 12.125 -20.539062 12.25 -18.96875 C 12.382812 -17.40625 12.671875 -15.269531 13.109375 -12.5625 C 13.554688 -9.84375 13.972656 -7.71875 14.359375 -6.1875 C 14.753906 -4.664062 15.222656 -3.613281 15.765625 -3.03125 C 16.304688 -2.457031 16.984375 -2.25 17.796875 -2.40625 C 18.660156 -2.550781 19.238281 -2.984375 19.53125 -3.703125 C 19.832031 -4.429688 19.925781 -5.578125 19.8125 -7.140625 C 19.695312 -8.703125 19.414062 -10.84375 18.96875 -13.5625 C 18.53125 -16.28125 18.101562 -18.398438 17.6875 -19.921875 C 17.28125 -21.453125 16.816406 -22.492188 16.296875 -23.046875 C 15.773438 -23.609375 15.085938 -23.816406 14.234375 -23.671875 Z M 14.234375 -23.671875 "/></g></g></g><g fill="#000000" fill-opacity="1"><g transform="translate(815.07347, 145.380033)"><g><path d="M 1.390625 -21.875 C 0.984375 -21.914062 0.6875 -22.113281 0.5 -22.46875 C 0.3125 -22.820312 0.253906 -23.203125 0.328125 -23.609375 C 0.410156 -24.015625 0.632812 -24.3125 1 -24.5 C 2.269531 -25.25 3.878906 -25.828125 5.828125 -26.234375 C 7.785156 -26.640625 9.675781 -26.84375 11.5 -26.84375 C 12.914062 -26.84375 14.066406 -26.722656 14.953125 -26.484375 C 15.847656 -26.242188 16.519531 -25.738281 16.96875 -24.96875 C 17.414062 -24.207031 17.640625 -23.03125 17.640625 -21.4375 C 18.679688 -23.070312 20.046875 -24.378906 21.734375 -25.359375 C 23.429688 -26.347656 25.285156 -26.863281 27.296875 -26.90625 C 30.265625 -26.976562 32.53125 -26.546875 34.09375 -25.609375 C 35.664062 -24.679688 36.65625 -23.175781 37.0625 -21.09375 C 38.0625 -22.8125 39.4375 -24.195312 41.1875 -25.25 C 42.9375 -26.3125 44.832031 -26.863281 46.875 -26.90625 C 50.414062 -26.976562 52.96875 -26.332031 54.53125 -24.96875 C 56.09375 -23.613281 56.875 -21.394531 56.875 -18.3125 L 56.875 -6.03125 L 56.921875 -6.03125 L 56.921875 -5.46875 C 56.921875 -4.46875 57.390625 -3.648438 58.328125 -3.015625 C 58.515625 -2.941406 58.691406 -2.847656 58.859375 -2.734375 C 59.023438 -2.617188 59.179688 -2.507812 59.328125 -2.40625 C 59.804688 -2.0625 59.941406 -1.570312 59.734375 -0.9375 C 59.535156 -0.3125 59.140625 0 58.546875 0 L 49.390625 0 C 48.015625 0 46.972656 -0.257812 46.265625 -0.78125 C 45.554688 -1.300781 45.0625 -1.988281 44.78125 -2.84375 C 44.507812 -3.695312 44.351562 -4.59375 44.3125 -5.53125 L 44.375 -14.5625 C 44.375 -15.570312 44.363281 -16.578125 44.34375 -17.578125 C 44.320312 -18.585938 44.148438 -19.4375 43.828125 -20.125 C 43.515625 -20.8125 42.914062 -21.132812 42.03125 -21.09375 C 41.207031 -21.09375 40.441406 -20.757812 39.734375 -20.09375 C 39.023438 -19.425781 38.457031 -18.609375 38.03125 -17.640625 C 37.601562 -16.671875 37.351562 -15.703125 37.28125 -14.734375 L 37.28125 -5.46875 C 37.28125 -4.425781 37.765625 -3.609375 38.734375 -3.015625 C 38.921875 -2.941406 39.085938 -2.847656 39.234375 -2.734375 C 39.378906 -2.617188 39.53125 -2.507812 39.6875 -2.40625 C 40.164062 -2.0625 40.3125 -1.570312 40.125 -0.9375 C 39.9375 -0.3125 39.546875 0 38.953125 0 L 29.75 0 C 28.40625 0 27.367188 -0.257812 26.640625 -0.78125 C 25.921875 -1.300781 25.429688 -1.988281 25.171875 -2.84375 C 24.910156 -3.695312 24.757812 -4.59375 24.71875 -5.53125 L 24.71875 -14.5625 C 24.757812 -15.570312 24.757812 -16.578125 24.71875 -17.578125 C 24.6875 -18.585938 24.507812 -19.4375 24.1875 -20.125 C 23.875 -20.8125 23.269531 -21.132812 22.375 -21.09375 C 21.519531 -21.09375 20.726562 -20.71875 20 -19.96875 C 19.28125 -19.226562 18.707031 -18.328125 18.28125 -17.265625 C 17.851562 -16.210938 17.640625 -15.179688 17.640625 -14.171875 L 17.640625 -5.46875 C 17.640625 -4.988281 17.773438 -4.53125 18.046875 -4.09375 C 18.328125 -3.664062 18.675781 -3.304688 19.09375 -3.015625 C 19.269531 -2.941406 19.429688 -2.847656 19.578125 -2.734375 C 19.734375 -2.617188 19.882812 -2.507812 20.03125 -2.40625 C 20.550781 -2.0625 20.707031 -1.570312 20.5 -0.9375 C 20.300781 -0.3125 19.90625 0 19.3125 0 L 3.1875 0 C 2.625 0 2.238281 -0.3125 2.03125 -0.9375 C 1.832031 -1.570312 1.972656 -2.0625 2.453125 -2.40625 C 2.640625 -2.507812 2.828125 -2.617188 3.015625 -2.734375 C 3.203125 -2.847656 3.390625 -2.957031 3.578125 -3.0625 C 4.578125 -3.550781 5.078125 -4.351562 5.078125 -5.46875 L 5.078125 -20.9375 C 5.078125 -21.375 4.957031 -21.664062 4.71875 -21.8125 C 4.476562 -21.96875 4.148438 -22.046875 3.734375 -22.046875 C 3.367188 -22.046875 2.976562 -22.015625 2.5625 -21.953125 C 2.15625 -21.898438 1.765625 -21.875 1.390625 -21.875 Z M 1.390625 -21.875 "/></g></g></g></svg>
